<svg width="24" height="24" viewBox="0 0 24 24" fill="none" xmlns="http://www.w3.org/2000/svg">
<path d="M11.2325 4.71375C11.0793 4.71375 10.9276 4.74394 10.7861 4.8026C10.6446 4.86126 10.516 4.94723 10.4077 5.05561C10.2994 5.16399 10.2135 5.29265 10.155 5.43423C10.0965 5.57581 10.0664 5.72754 10.0665 5.88074V12.8807C10.0665 13.19 10.1894 13.4866 10.408 13.7052C10.6267 13.9239 10.9233 14.0467 11.2325 14.0467H16.4795C16.6326 14.0467 16.7843 14.0166 16.9257 13.958C17.0672 13.8994 17.1957 13.8135 17.304 13.7052C17.4123 13.597 17.4982 13.4684 17.5568 13.327C17.6154 13.1855 17.6455 13.0339 17.6455 12.8807C17.6455 12.7276 17.6154 12.576 17.5568 12.4345C17.4982 12.2931 17.4123 12.1645 17.304 12.0563C17.1957 11.948 17.0672 11.8621 16.9257 11.8035C16.7843 11.7449 16.6326 11.7147 16.4795 11.7147H12.3985V5.88074C12.3985 5.5715 12.2757 5.27493 12.057 5.05626C11.8384 4.83759 11.5418 4.71375 11.2325 4.71375Z" fill="#C7C7C7"/>
<path d="M20.5275 3.51177C19.4293 2.39997 18.1213 1.51725 16.6794 0.914776C15.2375 0.312305 13.6903 0.0020752 12.1275 0.0020752C10.5648 0.0020752 9.0176 0.312305 7.57567 0.914776C6.13373 1.51725 4.82574 2.39997 3.72754 3.51177C3.52509 3.71753 3.41162 3.99462 3.41162 4.28327C3.41162 4.57193 3.52509 4.84902 3.72754 5.05477C3.82728 5.15597 3.94614 5.23633 4.07721 5.29118C4.20828 5.34603 4.34895 5.37427 4.49103 5.37427C4.63312 5.37427 4.7738 5.34603 4.90487 5.29118C5.03594 5.23633 5.1548 5.15597 5.25454 5.05477C6.15313 4.14512 7.22335 3.4229 8.40316 2.92998C9.58297 2.43705 10.8489 2.18323 12.1275 2.18323C13.4062 2.18323 14.6721 2.43705 15.8519 2.92998C17.0317 3.4229 18.102 4.14512 19.0005 5.05477C20.8229 6.90661 21.8443 9.40062 21.8443 11.9988C21.8443 14.5969 20.8229 17.0909 19.0005 18.9428C17.402 20.5529 15.2884 21.55 13.0292 21.7596C10.7701 21.9693 8.50907 21.3782 6.64154 20.0898L7.60554 19.7648C7.87827 19.6712 8.10302 19.4737 8.23093 19.2153C8.35883 18.9568 8.37953 18.6584 8.28854 18.3848C8.24462 18.2495 8.17436 18.1242 8.08179 18.0161C7.98923 17.9081 7.8762 17.8195 7.74922 17.7553C7.62224 17.6912 7.48382 17.6528 7.34193 17.6424C7.20005 17.632 7.05751 17.6498 6.92254 17.6948L4.12254 18.6378C3.87544 18.7225 3.66688 18.893 3.53461 19.1182C3.40235 19.3435 3.35514 19.6087 3.40153 19.8658L3.97754 23.1028C4.00095 23.2442 4.05226 23.3796 4.12849 23.501C4.20472 23.6224 4.30434 23.7275 4.42155 23.81C4.53877 23.8926 4.67123 23.951 4.81123 23.9819C4.95124 24.0127 5.09598 24.0155 5.23704 23.9899C5.37811 23.9643 5.51267 23.9109 5.6329 23.8328C5.75312 23.7547 5.85662 23.6534 5.93735 23.5349C6.01808 23.4165 6.07443 23.2831 6.10313 23.1427C6.13184 23.0022 6.13232 22.8574 6.10454 22.7168L6.02653 22.2808C8.29439 23.6529 10.9582 24.2215 13.5886 23.895C16.2191 23.5685 18.663 22.3658 20.5265 20.4808C22.7524 18.2178 24 15.1707 24.0001 11.9965C24.0003 8.82223 22.7532 5.77503 20.5275 3.51177Z" fill="#C7C7C7"/>
<path d="M2.83952 6.20876C2.70185 6.14157 2.55229 6.10218 2.39938 6.09286C2.24648 6.08353 2.09324 6.10446 1.94843 6.15443C1.80363 6.2044 1.6701 6.28245 1.55549 6.38409C1.44088 6.48573 1.34743 6.60898 1.28051 6.74677C1.18585 6.94011 1.09718 7.13544 1.01452 7.33277C0.954699 7.47375 0.923233 7.62512 0.921918 7.77825C0.920603 7.93139 0.949462 8.08328 1.00685 8.22526C1.06424 8.36724 1.14903 8.49652 1.25638 8.60574C1.36373 8.71495 1.49154 8.80195 1.63252 8.86176C1.77349 8.92158 1.92487 8.95305 2.078 8.95437C2.23113 8.95569 2.38303 8.92683 2.52501 8.86944C2.66699 8.81205 2.79628 8.72726 2.90549 8.61991C3.0147 8.51256 3.1017 8.38474 3.16152 8.24377C3.22952 8.08377 3.30151 7.92477 3.37751 7.76777C3.44458 7.63008 3.48386 7.48053 3.49312 7.32766C3.50237 7.17479 3.48142 7.0216 3.43146 6.87682C3.3815 6.73205 3.30351 6.59854 3.20194 6.48391C3.10038 6.36928 2.97722 6.27579 2.83952 6.20876Z" fill="#C7C7C7"/>
<path d="M1.16651 12.9257C1.47053 12.9258 1.76253 12.8071 1.9802 12.5948C2.19787 12.3826 2.32394 12.0936 2.33151 11.7897C2.33751 11.5697 2.34984 11.3494 2.36851 11.1287C2.38902 10.8239 2.28912 10.5233 2.09027 10.2914C1.89141 10.0595 1.6095 9.9149 1.30516 9.8887C1.00081 9.8625 0.698336 9.95677 0.462776 10.1513C0.227217 10.3457 0.0773872 10.6249 0.0455076 10.9287C0.0221743 11.1954 0.00717422 11.462 0.000507555 11.7287C-0.00401946 11.8821 0.0217736 12.0349 0.0764086 12.1783C0.131044 12.3217 0.213446 12.4529 0.31889 12.5643C0.424334 12.6758 0.550747 12.7654 0.69088 12.8279C0.831013 12.8905 0.98211 12.9247 1.13551 12.9287L1.16651 12.9257Z" fill="#C7C7C7"/>
<path d="M2.76351 14.7288C2.72147 14.58 2.65025 14.4411 2.55402 14.3201C2.45778 14.1991 2.33844 14.0984 2.20294 14.024C2.06744 13.9495 1.91848 13.9028 1.76474 13.8864C1.611 13.8701 1.45555 13.8845 1.30743 13.9287C1.1593 13.973 1.02146 14.0464 0.901933 14.1444C0.782403 14.2425 0.683567 14.3633 0.611177 14.4999C0.538786 14.6365 0.494287 14.7862 0.480268 14.9402C0.466248 15.0941 0.482988 15.2493 0.529515 15.3968C0.590515 15.5968 0.656516 15.8048 0.729516 16.0068C0.780338 16.1512 0.859114 16.2843 0.961347 16.3983C1.06358 16.5123 1.18727 16.605 1.32535 16.6712C1.46343 16.7374 1.6132 16.7758 1.7661 16.7841C1.91901 16.7925 2.07206 16.7706 2.21652 16.7198C2.36097 16.6689 2.494 16.5902 2.60801 16.488C2.72202 16.3857 2.81478 16.262 2.88098 16.1239C2.94719 15.9859 2.98555 15.8361 2.99388 15.6832C3.00221 15.5303 2.98034 15.3772 2.92951 15.2328C2.86951 15.0688 2.81418 14.9008 2.76351 14.7288Z" fill="#C7C7C7"/>
</svg>
