<svg width="32" height="32" viewBox="0 0 32 32" fill="none" xmlns="http://www.w3.org/2000/svg">
<path d="M18.973 4.84415L17.801 5.99015L18.078 7.60915C18.0886 7.67157 18.0855 7.73556 18.0688 7.79664C18.0522 7.85773 18.0224 7.91444 17.9815 7.96282C17.9407 8.01119 17.8897 8.05007 17.8323 8.07672C17.7749 8.10338 17.7123 8.11718 17.649 8.11715C17.502 8.11715 17.578 8.13715 15.999 7.30315L14.552 8.06715C14.4802 8.10483 14.3993 8.12169 14.3184 8.11584C14.2376 8.10998 14.16 8.08164 14.0943 8.03401C14.0287 7.98639 13.9777 7.92137 13.9471 7.8463C13.9165 7.77123 13.9074 7.68909 13.921 7.60915L14.198 5.99015L13.026 4.84415C12.9682 4.78746 12.9273 4.71576 12.908 4.6371C12.8887 4.55845 12.8918 4.47597 12.9168 4.39895C12.9419 4.32194 12.9879 4.25345 13.0498 4.20119C13.1116 4.14893 13.1869 4.11497 13.267 4.10315L14.885 3.86715L15.61 2.39515C15.6459 2.32241 15.7015 2.26117 15.7704 2.21835C15.8393 2.17552 15.9189 2.15283 16 2.15283C16.0811 2.15283 16.1607 2.17552 16.2296 2.21835C16.2985 2.26117 16.3541 2.32241 16.39 2.39515L17.114 3.86715L18.732 4.10315C18.8121 4.11497 18.8873 4.14893 18.9492 4.20119C19.0111 4.25345 19.0571 4.32194 19.0822 4.39895C19.1072 4.47597 19.1103 4.55845 19.091 4.6371C19.0717 4.71576 19.0308 4.78746 18.973 4.84415ZM11.464 7.06815L11.413 6.76815C11.613 6.56815 11.839 6.41415 11.74 6.11015C11.641 5.80615 11.364 5.81015 11.089 5.77015L10.955 5.49815C10.9191 5.42541 10.8635 5.36417 10.7946 5.32135C10.7256 5.27852 10.6461 5.25583 10.565 5.25583C10.4839 5.25583 10.4043 5.27852 10.3354 5.32135C10.2665 5.36417 10.2109 5.42541 10.175 5.49815L10.037 5.77215C9.759 5.81215 9.48399 5.80815 9.38599 6.11215C9.28799 6.41615 9.51399 6.57515 9.71299 6.77015L9.66199 7.07015C9.64842 7.15009 9.65746 7.23223 9.68809 7.3073C9.71872 7.38237 9.76971 7.44739 9.83533 7.49501C9.90095 7.54264 9.97857 7.57098 10.0594 7.57684C10.1403 7.58269 10.2212 7.56583 10.293 7.52815L10.562 7.38715C10.837 7.53215 10.897 7.57815 11.033 7.57815C11.0967 7.57852 11.1597 7.5649 11.2175 7.53825C11.2754 7.51161 11.3266 7.47258 11.3678 7.42394C11.4089 7.3753 11.4388 7.31822 11.4554 7.25674C11.472 7.19527 11.475 7.13089 11.464 7.06815ZM7.66399 9.24115L7.613 8.94115C7.813 8.74115 8.03899 8.58715 7.93999 8.28315C7.84099 7.97915 7.56399 7.98315 7.28899 7.94315L7.15499 7.67115C7.11906 7.59841 7.06349 7.53717 6.99457 7.49435C6.92565 7.45152 6.84613 7.42883 6.76499 7.42883C6.68385 7.42883 6.60434 7.45152 6.53542 7.49435C6.4665 7.53717 6.41093 7.59841 6.37499 7.67115L6.24099 7.94315C5.96299 7.98315 5.68799 7.97915 5.58999 8.28315C5.49199 8.58715 5.71799 8.74615 5.91699 8.94115L5.86599 9.24115C5.85242 9.32109 5.86146 9.40323 5.89209 9.4783C5.92271 9.55337 5.97372 9.61839 6.03933 9.66601C6.10495 9.71364 6.18257 9.74198 6.26344 9.74784C6.34431 9.75369 6.4252 9.73683 6.49699 9.69915L6.766 9.55815C7.041 9.70315 7.10099 9.74915 7.23699 9.74915C7.30031 9.74918 7.36287 9.73538 7.4203 9.70872C7.47774 9.68207 7.52866 9.64319 7.56951 9.59482C7.61036 9.54644 7.64016 9.48973 7.65683 9.42864C7.67349 9.36756 7.67662 9.30357 7.66599 9.24115H7.66399ZM22.337 7.06815L22.286 6.76815C22.486 6.56815 22.712 6.41415 22.613 6.11015C22.514 5.80615 22.237 5.81015 21.962 5.77015C21.838 5.51815 21.762 5.25515 21.438 5.25515C21.114 5.25515 21.038 5.52015 20.914 5.77015L20.614 5.81415C20.5339 5.82597 20.4586 5.85993 20.3968 5.91219C20.3349 5.96445 20.2889 6.03294 20.2638 6.10995C20.2388 6.18697 20.2357 6.26945 20.255 6.3481C20.2743 6.42676 20.3152 6.49846 20.373 6.55515L20.59 6.76715C20.543 7.04415 20.453 7.30415 20.712 7.49115C20.971 7.67815 21.192 7.51215 21.439 7.38315C21.714 7.52815 21.774 7.57415 21.91 7.57415C21.9732 7.57403 22.0357 7.56013 22.093 7.53341C22.1503 7.50669 22.2011 7.46779 22.2418 7.41943C22.2826 7.37108 22.3123 7.31442 22.3289 7.2534C22.3455 7.19239 22.3486 7.12849 22.338 7.06615L22.337 7.06815ZM26.137 9.24215L26.086 8.94215C26.286 8.74215 26.512 8.58815 26.413 8.28415C26.314 7.98015 26.037 7.98415 25.762 7.94415C25.638 7.69215 25.562 7.42915 25.238 7.42915C24.914 7.42915 24.838 7.69415 24.714 7.94415L24.414 7.98815C24.3339 7.99997 24.2586 8.03393 24.1968 8.08619C24.1349 8.13845 24.0889 8.20694 24.0638 8.28395C24.0388 8.36097 24.0357 8.44345 24.055 8.5221C24.0743 8.60076 24.1152 8.67246 24.173 8.72915L24.39 8.94115C24.343 9.21815 24.253 9.47815 24.512 9.66515C24.771 9.85215 24.992 9.68615 25.239 9.55715C25.514 9.70215 25.574 9.74815 25.71 9.74815C25.7729 9.74784 25.8351 9.73387 25.8921 9.7072C25.9491 9.68054 25.9997 9.64181 26.0403 9.5937C26.0809 9.54559 26.1105 9.48924 26.1272 9.42855C26.1439 9.36786 26.1473 9.30426 26.137 9.24215ZM9.59699 27.7852C9.59874 27.8433 9.58876 27.9012 9.56767 27.9555C9.54658 28.0097 9.5148 28.0591 9.47422 28.1008C9.43364 28.1425 9.38509 28.1757 9.33145 28.1982C9.27781 28.2208 9.22018 28.2323 9.16199 28.2322H6.87199C6.41148 28.2311 5.97018 28.0474 5.64492 27.7214C5.31966 27.3954 5.13699 26.9537 5.13699 26.4932V17.8002C5.13699 17.3389 5.32021 16.8966 5.64634 16.5705C5.97246 16.2444 6.41478 16.0612 6.87599 16.0612H9.15799C9.27336 16.0612 9.38401 16.107 9.46558 16.1886C9.54716 16.2701 9.59299 16.3808 9.59299 16.4962C9.58799 24.6822 9.57399 27.0352 9.59699 27.7852ZM8.12099 20.4082C8.12382 20.3493 8.11467 20.2906 8.0941 20.2354C8.07354 20.1802 8.04199 20.1298 8.00137 20.0872C7.96074 20.0446 7.91189 20.0106 7.85777 19.9874C7.80364 19.9643 7.74537 19.9523 7.68649 19.9523C7.62761 19.9523 7.56935 19.9643 7.51522 19.9874C7.4611 20.0106 7.41224 20.0446 7.37162 20.0872C7.33099 20.1298 7.29944 20.1802 7.27888 20.2354C7.25832 20.2906 7.24917 20.3493 7.252 20.4082V22.2522C7.25735 22.3638 7.30547 22.4691 7.38636 22.5462C7.46726 22.6233 7.57473 22.6663 7.68649 22.6663C7.79825 22.6663 7.90572 22.6233 7.98662 22.5462C8.06752 22.4691 8.11564 22.3638 8.12099 22.2522V20.4082ZM26.866 17.8002V26.4932C26.866 26.9544 26.6828 27.3967 26.3567 27.7228C26.0305 28.0489 25.5882 28.2322 25.127 28.2322H22.837C22.7788 28.2323 22.7212 28.2208 22.6675 28.1982C22.6139 28.1757 22.5654 28.1425 22.5248 28.1008C22.4842 28.0591 22.4524 28.0097 22.4313 27.9555C22.4102 27.9012 22.4002 27.8433 22.402 27.7852C22.425 27.0362 22.411 24.6852 22.41 16.4972C22.41 16.3818 22.4558 16.2711 22.5374 16.1896C22.619 16.108 22.7296 16.0622 22.845 16.0622H25.127C25.588 16.0622 26.0302 16.2452 26.3563 16.5711C26.6824 16.8971 26.8657 17.3391 26.866 17.8002ZM24.747 20.4082C24.7498 20.3493 24.7407 20.2906 24.7201 20.2354C24.6995 20.1802 24.668 20.1298 24.6274 20.0872C24.5867 20.0446 24.5379 20.0106 24.4838 19.9874C24.4296 19.9643 24.3714 19.9523 24.3125 19.9523C24.2536 19.9523 24.1953 19.9643 24.1412 19.9874C24.0871 20.0106 24.0382 20.0446 23.9976 20.0872C23.957 20.1298 23.9254 20.1802 23.9049 20.2354C23.8843 20.2906 23.8752 20.3493 23.878 20.4082V22.2522C23.8834 22.3638 23.9315 22.4691 24.0124 22.5462C24.0933 22.6233 24.2007 22.6663 24.3125 22.6663C24.4243 22.6663 24.5317 22.6233 24.6126 22.5462C24.6935 22.4691 24.7416 22.3638 24.747 22.2522V20.4082ZM14.913 28.2322H17.086C17.2014 28.2322 17.312 28.1863 17.3936 28.1047C17.4752 28.0232 17.521 27.9125 17.521 27.7972V23.7222C17.521 23.6068 17.4752 23.4961 17.3936 23.4146C17.312 23.333 17.2014 23.2872 17.086 23.2872H14.913C14.7976 23.2872 14.687 23.333 14.6054 23.4146C14.5238 23.4961 14.478 23.6068 14.478 23.7222V27.7972C14.478 27.9125 14.5238 28.0232 14.6054 28.1047C14.687 28.1863 14.7976 28.2322 14.913 28.2322ZM21.537 11.6062V27.7972C21.537 27.9125 21.4912 28.0232 21.4096 28.1047C21.328 28.1863 21.2174 28.2322 21.102 28.2322H18.825C18.7096 28.2322 18.599 28.1863 18.5174 28.1047C18.4358 28.0232 18.39 27.9125 18.39 27.7972V22.8522C18.39 22.7368 18.3442 22.6261 18.2626 22.5446C18.181 22.463 18.0704 22.4172 17.955 22.4172H14.044C13.9869 22.4172 13.9303 22.4284 13.8775 22.4503C13.8247 22.4721 13.7768 22.5042 13.7364 22.5446C13.696 22.585 13.664 22.6329 13.6421 22.6857C13.6202 22.7385 13.609 22.795 13.609 22.8522V27.7962C13.609 27.9115 13.5632 28.0222 13.4816 28.1037C13.4 28.1853 13.2894 28.2312 13.174 28.2312H10.892C10.7766 28.2312 10.666 28.1853 10.5844 28.1037C10.5028 28.0222 10.457 27.9115 10.457 27.7962V11.6062C10.457 11.1449 10.6402 10.7026 10.9663 10.3765C11.2925 10.0504 11.7348 9.86715 12.196 9.86715H19.803C20.2633 9.86848 20.7044 10.0523 21.0294 10.3783C21.3545 10.7042 21.537 11.1458 21.537 11.6062ZM18.168 18.8872C18.168 18.7725 18.1227 18.6624 18.042 18.581C17.9613 18.4995 17.8517 18.4532 17.737 18.4522H14.261C14.2022 18.4493 14.1434 18.4585 14.0882 18.479C14.0331 18.4996 13.9826 18.5312 13.94 18.5718C13.8974 18.6124 13.8635 18.6613 13.8403 18.7154C13.8171 18.7695 13.8051 18.8278 13.8051 18.8867C13.8051 18.9455 13.8171 19.0038 13.8403 19.0579C13.8635 19.1121 13.8974 19.1609 13.94 19.2015C13.9826 19.2422 14.0331 19.2737 14.0882 19.2943C14.1434 19.3148 14.2022 19.324 14.261 19.3212H17.737C17.7942 19.3213 17.8509 19.3101 17.9038 19.2883C17.9567 19.2665 18.0047 19.2345 18.0452 19.1941C18.0857 19.1537 18.1179 19.1057 18.1398 19.0529C18.1617 19 18.173 18.9434 18.173 18.8862L18.168 18.8872ZM18.929 14.7032C18.929 14.5878 18.8832 14.4771 18.8016 14.3956C18.72 14.314 18.6094 14.2682 18.494 14.2682H13.494C13.3824 14.2735 13.2771 14.3216 13.2 14.4025C13.1229 14.4834 13.0798 14.5909 13.0798 14.7027C13.0798 14.8144 13.1229 14.9219 13.2 15.0028C13.2771 15.0837 13.3824 15.1318 13.494 15.1372H18.494C18.5517 15.1382 18.609 15.1278 18.6627 15.1065C18.7163 15.0851 18.7652 15.0534 18.8064 15.013C18.8476 14.9726 18.8804 14.9244 18.9028 14.8712C18.9253 14.818 18.9369 14.7609 18.937 14.7032H18.929Z" fill="white"/>
</svg>
