<svg width="18" height="18" viewBox="0 0 18 18" fill="none" xmlns="http://www.w3.org/2000/svg">
<path d="M14.8333 8.16663H9.83329V5.66663H14.8333C15.2753 5.66663 15.6992 5.49103 16.0118 5.17847C16.3244 4.86591 16.5 4.44199 16.5 3.99996V2.33329C16.5 1.89127 16.3244 1.46734 16.0118 1.15478C15.6992 0.842221 15.2753 0.666626 14.8333 0.666626H3.16663L0.666626 3.16663L3.16663 5.66663H8.16663V8.16663H3.16663C2.7246 8.16663 2.30068 8.34222 1.98811 8.65478C1.67555 8.96734 1.49996 9.39126 1.49996 9.83329V11.5C1.49996 11.942 1.67555 12.3659 1.98811 12.6785C2.30068 12.991 2.7246 13.1666 3.16663 13.1666H8.16663V17.3333H9.83329V13.1666H14.8333L17.3333 10.6666L14.8333 8.16663Z" fill="#E07026"/>
</svg>
