<svg width="16" height="16" viewBox="0 0 16 16" fill="none" xmlns="http://www.w3.org/2000/svg">
<path d="M14.6431 7.1779L11.8306 9.60478L12.6875 13.2342C12.7348 13.4312 12.7226 13.6378 12.6525 13.8279C12.5824 14.018 12.4576 14.1831 12.2937 14.3022C12.1299 14.4214 11.9344 14.4894 11.7319 14.4975C11.5295 14.5056 11.3291 14.4536 11.1563 14.3479L8.00001 12.4054L4.84188 14.3479C4.66902 14.453 4.46895 14.5045 4.26684 14.4961C4.06474 14.4877 3.86965 14.4196 3.70613 14.3006C3.54262 14.1815 3.41799 14.0167 3.34795 13.8269C3.2779 13.6372 3.26557 13.4309 3.31251 13.2342L4.17251 9.60478L1.36001 7.1779C1.20707 7.04572 1.09646 6.87141 1.042 6.67674C0.987532 6.48207 0.991626 6.27567 1.05377 6.08332C1.11591 5.89096 1.23334 5.72118 1.3914 5.59517C1.54946 5.46915 1.74114 5.3925 1.94251 5.37478L5.63001 5.07728L7.05251 1.63478C7.1295 1.44716 7.26055 1.28668 7.42899 1.17374C7.59743 1.06079 7.79564 1.00049 7.99844 1.00049C8.20124 1.00049 8.39946 1.06079 8.5679 1.17374C8.73634 1.28668 8.86738 1.44716 8.94438 1.63478L10.3663 5.07728L14.0538 5.37478C14.2555 5.39184 14.4478 5.46807 14.6064 5.5939C14.765 5.71974 14.883 5.8896 14.9455 6.08219C15.0081 6.27477 15.0124 6.48153 14.9579 6.67656C14.9034 6.87158 14.7926 7.0462 14.6394 7.17853L14.6431 7.1779Z" fill="#E07026"/>
</svg>
