<svg width="24" height="24" viewBox="0 0 24 24" fill="none" xmlns="http://www.w3.org/2000/svg">
<path d="M13.4895 3.22813C13.361 3.30048 13.2415 3.38775 13.1335 3.48813L12.5245 4.05213L15.4505 6.70713C15.861 7.07975 16.1705 7.55035 16.3499 8.07497C16.5293 8.59959 16.5729 9.16112 16.4765 9.70713L14.8045 19.2131C14.7299 19.6375 14.5725 20.0431 14.3412 20.4066C14.1098 20.7701 13.8091 21.0845 13.4562 21.3317C13.1033 21.5789 12.7051 21.7542 12.2844 21.8474C11.8637 21.9407 11.4288 21.9501 11.0045 21.8751L10.4705 21.7811L10.5894 22.4541C10.6661 22.8867 10.8922 23.2787 11.2283 23.5616C11.5644 23.8445 11.9891 24.0004 12.4285 24.0021C12.5365 24.0021 22.4505 22.2641 22.4505 22.2641C22.9402 22.1778 23.3755 21.9005 23.6608 21.4931C23.946 21.0858 24.0578 20.5818 23.9715 20.0921L21.6324 6.82613C21.5783 6.51864 21.4482 6.22953 21.2541 5.98505C21.0599 5.74057 20.8077 5.54845 20.5204 5.42613L15.1434 3.13713C15.06 3.10163 14.9741 3.07222 14.8865 3.04913L14.6535 1.59113L14.4944 0.591127C14.4796 0.499858 14.4469 0.412406 14.3983 0.333763C14.3497 0.255121 14.286 0.186828 14.211 0.132784C14.136 0.0787405 14.051 0.0400042 13.961 0.0187869C13.871 -0.00243031 13.7777 -0.00571296 13.6864 0.00912642C13.5952 0.0239658 13.5077 0.0566366 13.4291 0.105273C13.3504 0.15391 13.2821 0.217561 13.2281 0.29259C13.1741 0.36762 13.1353 0.45256 13.1141 0.54256C13.0929 0.63256 13.0896 0.725858 13.1044 0.817127L13.2594 1.78913L13.4895 3.22813Z" fill="#C7C7C7"/>
<path d="M7.30348 11.1212L7.68748 8.94116H7.66447C7.44912 8.97309 7.2466 9.06328 7.07881 9.202C6.91101 9.34071 6.78433 9.52266 6.71247 9.72816C6.6416 9.88108 6.61348 10.0503 6.63108 10.218C6.64869 10.3856 6.71138 10.5453 6.81248 10.6802C6.96184 10.8417 7.12625 10.9888 7.30348 11.1192V11.1212Z" fill="#C7C7C7"/>
<path d="M7.97852 12.6702L7.47852 15.5362C7.783 15.4992 8.07104 15.3777 8.31 15.1854C8.54895 14.9931 8.72927 14.7377 8.83052 14.4482C8.95154 14.1389 8.95141 13.7953 8.83017 13.4861C8.70893 13.1769 8.47551 12.9248 8.17651 12.7802L7.97852 12.6702Z" fill="#C7C7C7"/>
<path d="M8.56747 3.41407C8.46125 3.43666 8.35719 3.46845 8.25647 3.50907L2.84847 5.69507C2.55323 5.81342 2.29295 6.00494 2.09212 6.2516C1.8913 6.49827 1.75652 6.79197 1.70047 7.10507L0.0284732 16.6051C-0.0578465 17.0948 0.053906 17.5987 0.339147 18.0061C0.624389 18.4134 1.05975 18.6907 1.54947 18.7771L11.2435 20.4861C11.486 20.5291 11.7346 20.5238 11.9751 20.4706C12.2156 20.4175 12.4432 20.3174 12.645 20.1761C12.8467 20.0348 13.0186 19.8551 13.1508 19.6473C13.283 19.4395 13.373 19.2077 13.4155 18.9651L15.0915 9.45907C15.1464 9.14705 15.1214 8.8262 15.0187 8.52647C14.9161 8.22674 14.7392 7.9579 14.5045 7.74507L10.2175 3.85507C10.1349 3.78065 10.0459 3.71372 9.95147 3.65507L10.2065 2.21107L10.4505 0.82907C10.4828 0.64554 10.441 0.456673 10.3341 0.304019C10.2272 0.151364 10.064 0.047426 9.88047 0.0150695C9.69694 -0.0172869 9.50808 0.0245889 9.35542 0.131485C9.20277 0.23838 9.09883 0.40154 9.06647 0.58507L8.82147 1.97007L8.56747 3.41407ZM8.88547 7.54807L8.78547 8.09707C9.23388 8.23123 9.63596 8.48785 9.94647 8.83807C9.97047 8.86307 9.99447 8.88907 10.0065 8.90007C10.091 8.986 10.1391 9.10116 10.141 9.22166C10.1428 9.34216 10.0982 9.45875 10.0164 9.54724C9.93462 9.63573 9.8219 9.68934 9.70162 9.69694C9.58135 9.70454 9.46277 9.66556 9.37047 9.58807C9.33547 9.55607 9.30147 9.52007 9.27047 9.48207C9.09605 9.28003 8.87451 9.1241 8.62547 9.02807L8.15547 11.6851C8.30247 11.7731 8.46147 11.8661 8.63447 11.9641C9.12772 12.2158 9.51052 12.6409 9.70932 13.1578C9.90812 13.6746 9.90889 14.2467 9.71147 14.7641C9.51679 15.3101 9.14644 15.7761 8.65847 16.0891C8.25609 16.349 7.7875 16.4878 7.30847 16.4891L7.19047 17.1611C7.17124 17.2694 7.11452 17.3675 7.03024 17.4383C6.94597 17.509 6.83951 17.5479 6.72947 17.5481C6.70199 17.5481 6.67455 17.5458 6.64747 17.5411C6.52512 17.5194 6.41638 17.45 6.34514 17.3482C6.27389 17.2464 6.24596 17.1205 6.26747 16.9981L6.37947 16.3611C5.74631 16.2329 5.16725 15.9147 4.71947 15.4491C4.63414 15.3627 4.5856 15.2467 4.58408 15.1253C4.58256 15.0039 4.62817 14.8866 4.71131 14.7982C4.79446 14.7097 4.90867 14.6569 5.02992 14.651C5.15117 14.645 5.27002 14.6862 5.36147 14.7661C5.67664 15.1062 6.08905 15.3409 6.54247 15.4381L7.12247 12.1491C6.75212 11.9115 6.41341 11.6279 6.11447 11.3051C5.89792 11.0428 5.75749 10.7261 5.70847 10.3895C5.65945 10.0529 5.70373 9.70925 5.83647 9.39607C5.96839 9.03011 6.19845 8.70751 6.50147 8.46357C6.80449 8.21964 7.16879 8.06378 7.55447 8.01307C7.65447 8.00107 7.75447 7.99307 7.85447 7.99007L7.96147 7.39007C7.97001 7.32752 7.99109 7.26733 8.02345 7.21312C8.05581 7.15891 8.09878 7.11179 8.14979 7.07459C8.2008 7.03738 8.25879 7.01086 8.3203 6.99661C8.3818 6.98236 8.44555 6.98067 8.50773 6.99165C8.5699 7.00263 8.62921 7.02605 8.68212 7.06051C8.73502 7.09496 8.78042 7.13974 8.8156 7.19217C8.85078 7.24459 8.87502 7.30358 8.88685 7.36559C8.89868 7.42761 8.89788 7.49137 8.88447 7.55307L8.88547 7.54807Z" fill="#C7C7C7"/>
</svg>
