<svg width="14" height="14" viewBox="0 0 14 14" fill="none" xmlns="http://www.w3.org/2000/svg">
<path d="M13.5417 4.89334L9.58589 4.54688L8.04115 0.876121C7.76326 0.20796 6.81517 0.20796 6.53728 0.876121L4.99253 4.55513L1.04486 4.89334C0.325616 4.95108 0.0313798 5.85846 0.578987 6.33689L3.57856 8.96004L2.67951 12.8535C2.51604 13.5629 3.27615 14.1239 3.89732 13.7444L7.28921 11.6822L10.6811 13.7527C11.3023 14.1321 12.0624 13.5712 11.8989 12.8618L10.9999 8.96004L13.9994 6.33689C14.547 5.85846 14.261 4.95108 13.5417 4.89334ZM7.28921 10.1396V2.46816L8.68684 5.80072L12.2667 6.11417L9.5532 8.48986L10.3705 12.0204L7.28921 10.1396Z" fill="#E07026"/>
</svg>
