<svg width="17" height="15" viewBox="0 0 17 15" fill="none" xmlns="http://www.w3.org/2000/svg">
<path d="M8.66108 1.128L6.55634 5.34128L1.87892 6.01455L5.26278 9.27007L4.45955 13.8855L8.66108 11.7051L12.8626 13.8855L12.0594 9.27007L15.4433 6.01454L10.7658 5.34128L8.66108 1.128ZM8.659 0.0631104C8.99577 0.0631466 9.33278 0.236703 9.5054 0.580484L11.4265 4.42606L15.7246 5.04472C16.4953 5.15509 16.8042 6.09325 16.2453 6.63058L13.1357 9.62223L13.8712 13.8483C14.0036 14.6122 13.1887 15.1815 12.5061 14.8271L8.66108 12.8317L4.81603 14.8271C4.13351 15.1844 3.3186 14.6122 3.45099 13.8483L4.18646 9.62223L1.07688 6.63058C0.517922 6.09325 0.82682 5.15509 1.5976 5.04472L5.8957 4.42606L7.81676 0.580484C7.9898 0.234453 8.32429 0.0630741 8.659 0.0631104Z" fill="#E07026"/>
</svg>
