<svg width="32" height="32" viewBox="0 0 32 32" fill="none" xmlns="http://www.w3.org/2000/svg">
<path d="M27.833 12.782C27.7974 12.6966 27.7383 12.623 27.6625 12.5699C27.5868 12.5168 27.4974 12.4863 27.405 12.482H25.212C25.1195 12.4863 25.0302 12.5168 24.9544 12.5699C24.8787 12.623 24.8195 12.6966 24.784 12.782C24.7327 12.9288 24.691 13.0788 24.659 13.231L23.194 9.131C23.0769 8.80124 22.8608 8.51566 22.5754 8.31324C22.2899 8.11082 21.9489 8.00143 21.599 8H10.399C10.0496 8.00205 9.70926 8.11173 9.42439 8.3141C9.13953 8.51648 8.92395 8.80172 8.807 9.131L7.342 13.231C7.31001 13.0785 7.26826 12.9282 7.217 12.781C7.18144 12.6956 7.12233 12.622 7.04655 12.5689C6.97076 12.5158 6.88144 12.4853 6.789 12.481H4.599C4.50655 12.4853 4.41723 12.5158 4.34145 12.5689C4.26566 12.622 4.20655 12.6956 4.171 12.781C3.94902 13.32 3.94902 13.925 4.171 14.464C4.20655 14.5494 4.26566 14.623 4.34145 14.6761C4.41723 14.7292 4.50655 14.7597 4.599 14.764H6.799L6.766 14.857C6.54094 14.9338 6.34561 15.0791 6.20749 15.2727C6.06936 15.4662 5.9954 15.6982 5.996 15.936V23.453C5.9952 23.5971 6.05161 23.7356 6.15285 23.8382C6.25409 23.9408 6.39189 23.9989 6.536 24H9.256C9.4001 23.9989 9.5379 23.9408 9.63914 23.8382C9.74038 23.7356 9.79679 23.5971 9.796 23.453V20.791H22.208V23.453C22.2072 23.5971 22.2636 23.7356 22.3649 23.8382C22.4661 23.9408 22.6039 23.9989 22.748 24H25.468C25.6121 23.9989 25.7499 23.9408 25.8511 23.8382C25.9524 23.7356 26.0088 23.5971 26.008 23.453V15.936C26.0086 15.6982 25.9346 15.4662 25.7965 15.2727C25.6584 15.0791 25.4631 14.9338 25.238 14.857L25.205 14.764H27.405C27.4974 14.7597 27.5868 14.7292 27.6625 14.6761C27.7383 14.623 27.7974 14.5494 27.833 14.464C28.0547 13.9253 28.0547 13.3208 27.833 12.782ZM10.605 10.013H21.393L23.099 14.798H8.899L10.605 10.013ZM10.905 18.169H8.63C8.39794 18.1612 8.17797 18.0636 8.01656 17.8967C7.85514 17.7298 7.76491 17.5067 7.76491 17.2745C7.76491 17.0423 7.85514 16.8192 8.01656 16.6523C8.17797 16.4854 8.39794 16.3878 8.63 16.38H10.906C11.1381 16.3878 11.358 16.4854 11.5194 16.6523C11.6808 16.8192 11.7711 17.0423 11.7711 17.2745C11.7711 17.5067 11.6808 17.7298 11.5194 17.8967C11.358 18.0636 11.1371 18.1612 10.905 18.169ZM23.369 18.169H21.094C20.8619 18.1612 20.642 18.0636 20.4806 17.8967C20.3191 17.7298 20.2289 17.5067 20.2289 17.2745C20.2289 17.0423 20.3191 16.8192 20.4806 16.6523C20.642 16.4854 20.8619 16.3878 21.094 16.38H23.369C23.6011 16.3878 23.821 16.4854 23.9824 16.6523C24.1438 16.8192 24.2341 17.0423 24.2341 17.2745C24.2341 17.5067 24.1438 17.7298 23.9824 17.8967C23.821 18.0636 23.6011 18.1612 23.369 18.169Z" fill="white"/>
</svg>
