<svg width="17" height="31" viewBox="0 0 17 31" fill="none" xmlns="http://www.w3.org/2000/svg">
<path d="M7.86788 7.34732C9.89476 7.34732 11.5379 5.70421 11.5379 3.67732C11.5379 1.65044 9.89476 0.00732422 7.86788 0.00732422C5.84099 0.00732422 4.19788 1.65044 4.19788 3.67732C4.19788 5.70421 5.84099 7.34732 7.86788 7.34732Z" fill="#C7C7C7"/>
<path d="M16.1439 14.4473C13.7207 13.1423 11.5847 11.3634 9.86285 9.21627C8.77685 7.81627 5.90685 7.88827 4.74085 9.17227C3.08458 10.6264 1.58507 12.2499 0.266852 14.0163C0.151583 14.1741 0.0709783 14.3544 0.0303265 14.5455C-0.0103254 14.7367 -0.0101052 14.9342 0.0309721 15.1253C0.0720495 15.3163 0.153055 15.4965 0.268675 15.654C0.384296 15.8115 0.531917 15.9428 0.701852 16.0393C0.967611 16.2018 1.27332 16.2874 1.58485 16.2863C1.84027 16.2897 2.09292 16.233 2.32239 16.1208C2.55186 16.0086 2.75173 15.844 2.90585 15.6403C3.45761 14.8907 4.05087 14.1726 4.68285 13.4893C4.65785 15.0033 4.73985 17.7363 4.78285 18.9643C4.79586 19.3748 4.69367 19.7808 4.48785 20.1363C2.91746 22.9597 1.66066 25.9465 0.739853 29.0433C0.68235 29.2423 0.666261 29.4509 0.692583 29.6564C0.718904 29.8618 0.787075 30.0597 0.892884 30.2378C0.998693 30.4158 1.13989 30.5703 1.30776 30.6917C1.47562 30.813 1.66659 30.8986 1.86885 30.9433C2.06413 30.9964 2.26696 31.0164 2.46885 31.0023C2.79616 30.9866 3.11133 30.8735 3.37394 30.6775C3.63656 30.4815 3.83466 30.2116 3.94285 29.9023C4.78603 27.0662 5.92845 24.3277 7.35085 21.7333C7.42585 21.7333 7.50085 21.7333 7.57785 21.7333C8.52185 24.3186 9.46652 26.9043 10.4119 29.4903C11.0989 31.3743 14.2839 30.3953 13.5949 28.5113C12.5615 25.6853 11.5302 22.8596 10.5009 20.0343C10.4025 19.7066 10.3273 19.3725 10.2759 19.0343C10.1105 17.3014 10.0391 15.5609 10.0619 13.8203C11.5406 15.1149 13.1656 16.2322 14.9039 17.1493C16.6799 18.0983 17.9009 15.3813 16.1439 14.4473Z" fill="#C7C7C7"/>
</svg>
